<svg width="72" height="24" viewBox="0 0 72 24" fill="none" xmlns="http://www.w3.org/2000/svg">
<path d="M12.9631 6.37744C12.9631 2.6551 10.3601 0 6.71583 0H0V18.2213H2.99349V12.7549H5.93492L9.26681 18.2213H12.6768L9.0846 12.3384C11.4273 11.4534 12.9631 9.21475 12.9631 6.37744ZM2.99349 2.68113H6.53362C8.51193 2.68113 9.96963 4.24295 9.96963 6.37744C9.96963 8.51193 8.51193 10.0738 6.53362 10.0738H2.99349V2.68113Z" fill="black"/>
<path d="M20.9908 18.5336C23.9062 18.5336 26.1969 16.9458 26.5613 14.6811H23.698C23.2295 15.6182 22.3965 16.0607 20.9908 16.0607C18.9345 16.0607 17.685 15.0195 17.6069 13.0933H26.6134C26.6655 12.4165 26.6915 12.026 26.6915 11.5315C26.6915 8.12148 24.3488 5.77874 20.8867 5.77874C17.1904 5.77874 14.7956 8.27766 14.7956 12.1562C14.7956 16.0868 17.1644 18.5336 20.9908 18.5336ZM17.6069 10.9328C17.6329 9.21475 18.8303 8.01735 20.8347 8.01735C22.7869 8.01735 23.8802 9.05857 23.9062 10.9328H17.6069Z" fill="black"/>
<path d="M34.4835 18.5336C35.9673 18.5336 37.6332 17.8048 38.3881 16.5813V18.2213H41.1994V6.09111H38.3881V7.73102C37.6332 6.50759 36.1755 5.77874 34.5616 5.77874C30.7872 5.77874 28.5226 8.59002 28.5226 12.1562C28.5226 15.7223 30.579 18.5336 34.4835 18.5336ZM34.9 16.0087C32.6874 16.0087 31.3599 14.3688 31.3599 12.1562C31.3599 9.9436 32.6874 8.30369 34.9 8.30369C37.3208 8.30369 38.4922 10.0738 38.4922 12.1562C38.4922 14.2386 37.3208 16.0087 34.9 16.0087Z" fill="black"/>
<path d="M53.7928 0V7.73102C53.0379 6.50759 51.5802 5.77874 49.9663 5.77874C46.1919 5.77874 43.9273 8.59002 43.9273 12.1562C43.9273 15.7223 45.9837 18.5336 49.8882 18.5336C51.3719 18.5336 53.0379 17.8048 53.7928 16.5813V18.2213H56.6041V0H53.7928ZM50.3047 16.0087C48.0921 16.0087 46.7646 14.3688 46.7646 12.1562C46.7646 9.9436 48.0921 8.30369 50.3047 8.30369C52.7255 8.30369 53.8969 10.0738 53.8969 12.1562C53.8969 14.2386 52.7255 16.0087 50.3047 16.0087Z" fill="black"/>
<path d="M68.4946 6.09111V12.3644C68.4946 14.4469 67.5575 16.0347 65.5792 16.0347C63.5489 16.0347 62.9502 14.6811 62.9502 12.885V6.09111H60.1129V13.4837C60.1129 16.3991 61.5966 18.5336 64.5901 18.5336C66.3862 18.5336 67.7398 17.8308 68.4946 16.5293V18.0651C68.4946 20.6421 67.2712 21.6573 65.5792 21.6573C63.7571 21.6573 63.1064 20.9284 62.9762 19.6009H60.1129C60.1389 20.9284 60.6074 21.9957 61.4664 22.7505C62.4296 23.5575 63.8352 24 65.6313 24C67.3493 24 68.7549 23.5054 69.7441 22.5944C70.7593 21.6052 71.3319 20.1735 71.3319 18.2733V6.09111H68.4946Z" fill="black"/>
</svg>
